<svg width="319" height="319" viewBox="0 0 319 319" fill="none" xmlns="http://www.w3.org/2000/svg">
<path d="M160.04 290.08C238.487 290.08 302.08 226.487 302.08 148.04C302.08 69.5935 238.487 6 160.04 6C81.5935 6 18 69.5935 18 148.04C18 226.487 81.5935 290.08 160.04 290.08Z" fill="#3E68FF"/>
<mask id="mask0_3050_1258" style="mask-type:luminance" maskUnits="userSpaceOnUse" x="18" y="6" width="285" height="285">
<path d="M160.07 290.08C238.517 290.08 302.11 226.487 302.11 148.04C302.11 69.5935 238.517 6 160.07 6C81.6235 6 18.03 69.5935 18.03 148.04C18.03 226.487 81.6235 290.08 160.07 290.08Z" fill="white"/>
</mask>
<g mask="url(#mask0_3050_1258)">
<path d="M161.77 214.572C161.77 214.572 190.52 246.622 231.21 233.902C259.59 225.032 268.37 201.452 271.08 187.982C271.656 185.159 271.418 182.232 270.395 179.539C269.372 176.846 267.605 174.5 265.3 172.772C256.607 166.226 247.468 160.295 237.95 155.022C235.661 153.81 233.727 152.022 232.338 149.836C230.95 147.649 230.154 145.139 230.03 142.552C229.34 125.612 222.44 88.0918 176.03 77.7518C115.53 64.2418 71.22 121.772 58.25 148.182C45.28 174.592 33.96 224.532 85.65 234.482C131.25 243.252 141.17 181.632 141.17 181.632C141.17 181.632 151.54 126.312 186 102.082" stroke="#CAFFC8" stroke-width="12.98" stroke-miterlimit="10" stroke-linecap="round"/>
<path d="M197.19 176.07C203.933 176.07 209.4 169.265 209.4 160.87C209.4 152.475 203.933 145.67 197.19 145.67C190.447 145.67 184.98 152.475 184.98 160.87C184.98 169.265 190.447 176.07 197.19 176.07Z" fill="#CAFFC8"/>
<path d="M93.08 210.442C106.246 210.442 116.92 199.768 116.92 186.602C116.92 173.435 106.246 162.762 93.08 162.762C79.9135 162.762 69.24 173.435 69.24 186.602C69.24 199.768 79.9135 210.442 93.08 210.442Z" stroke="#CAFFC8" stroke-width="12.98" stroke-miterlimit="10" stroke-linecap="round"/>
<path d="M197.34 39.5918L182.3 75.7018" stroke="#CAFFC8" stroke-width="12.98" stroke-miterlimit="10" stroke-linecap="round"/>
<path d="M198.6 52.7309C207.602 52.7309 214.9 45.4331 214.9 36.4309C214.9 27.4286 207.602 20.1309 198.6 20.1309C189.598 20.1309 182.3 27.4286 182.3 36.4309C182.3 45.4331 189.598 52.7309 198.6 52.7309Z" fill="#CAFFC8"/>
<path d="M181.4 229.092C181.4 229.092 156.59 266.522 160.49 290.092" stroke="#CAFFC8" stroke-width="12.98" stroke-miterlimit="10" stroke-linecap="round"/>
<path d="M60.6 223.271C60.6 223.271 56.19 233.361 51.6 239.271" stroke="#CAFFC8" stroke-width="12.98" stroke-miterlimit="10" stroke-linecap="round"/>
<path d="M280.003 114.937C274.539 117.196 270.166 121.559 267.83 127.084C267.725 127.354 267.544 127.586 267.308 127.749C267.073 127.913 266.794 128 266.51 128C266.225 128 265.947 127.913 265.711 127.749C265.476 127.586 265.294 127.354 265.189 127.084C262.835 121.555 258.451 117.189 252.979 114.925C252.693 114.823 252.445 114.633 252.27 114.381C252.094 114.129 252 113.828 252 113.519C252 113.21 252.094 112.909 252.27 112.657C252.445 112.405 252.693 112.215 252.979 112.114C258.449 109.826 262.83 105.45 265.189 99.9164C265.294 99.6461 265.476 99.4142 265.711 99.2508C265.947 99.0874 266.225 99 266.51 99C266.794 99 267.073 99.0874 267.308 99.2508C267.544 99.4142 267.725 99.6461 267.83 99.9164C270.163 105.455 274.535 109.836 280.003 112.114C280.293 112.212 280.546 112.402 280.725 112.655C280.904 112.909 281 113.213 281 113.525C281 113.838 280.904 114.142 280.725 114.396C280.546 114.649 280.293 114.838 280.003 114.937Z" fill="#CAFFC8"/>
<path d="M103.16 49.4613C99.6935 50.8641 96.9197 53.5769 95.4401 57.0113C95.3725 57.1802 95.2559 57.325 95.1053 57.427C94.9547 57.529 94.777 57.5836 94.5951 57.5836C94.4131 57.5836 94.2354 57.529 94.0848 57.427C93.9342 57.325 93.8176 57.1802 93.7501 57.0113C92.2592 53.5717 89.4756 50.8564 86.0001 49.4513C85.82 49.3865 85.6643 49.2676 85.5542 49.111C85.4442 48.9544 85.3851 48.7677 85.3851 48.5763C85.3851 48.3849 85.4442 48.1982 85.5542 48.0416C85.6643 47.885 85.82 47.7662 86.0001 47.7013C89.4782 46.2846 92.2611 43.5591 93.7501 40.1113C93.8176 39.9424 93.9342 39.7976 94.0848 39.6956C94.2354 39.5936 94.4131 39.5391 94.5951 39.5391C94.777 39.5391 94.9547 39.5936 95.1053 39.6956C95.2559 39.7976 95.3725 39.9424 95.4401 40.1113C96.9178 43.554 99.6909 46.2768 103.16 47.6913C103.347 47.7517 103.51 47.87 103.626 48.029C103.742 48.188 103.804 48.3796 103.804 48.5763C103.804 48.773 103.742 48.9646 103.626 49.1236C103.51 49.2826 103.347 49.4009 103.16 49.4613Z" fill="#CAFFC8"/>
<path d="M151.8 50.0812C153.54 50.0812 154.95 48.6709 154.95 46.9313C154.95 45.1916 153.54 43.7812 151.8 43.7812C150.06 43.7812 148.65 45.1916 148.65 46.9313C148.65 48.6709 150.06 50.0812 151.8 50.0812Z" fill="#CAFFC8"/>
<path d="M53.96 112.351C56.4177 112.351 58.41 110.359 58.41 107.901C58.41 105.444 56.4177 103.451 53.96 103.451C51.5023 103.451 49.51 105.444 49.51 107.901C49.51 110.359 51.5023 112.351 53.96 112.351Z" fill="#CAFFC8"/>
</g>
<path d="M167.25 289.89L166.84 312.89C164.69 312.98 162.54 313.02 160.34 313.02C135.664 313.044 111.298 307.522 89.0436 296.861C66.7892 286.201 47.2156 270.674 31.77 251.43L47.34 234.17C60.5983 251.561 77.6942 265.655 97.2949 275.353C116.896 285.051 138.471 290.091 160.34 290.08C162.63 290.08 164.96 290.03 167.25 289.89Z" fill="#CAFFC8"/>
</svg>
